<svg id="Capa_1" enable-background="new 0 0 501 501" height="512" viewBox="0 0 501 501" width="512" xmlns="http://www.w3.org/2000/svg"><path d="m501 250.5c0 135.31-109.69 245-245 245s-245-109.69-245-245 109.69-245 245-245 245 109.69 245 245z" fill="#fdb44c"/><path d="m410 179.5c0 91.127-73.873 165-165 165s-165-73.873-165-165 73.873-165 165-165 165 73.873 165 165z" fill="#ffdf8e"/><path d="m330 139.5c0 57.99-47.01 105-105 105s-105-47.01-105-105 47.01-105 105-105 105 47.01 105 105z" fill="#fff2b4"/><path d="m330 139.5c0 51.151-36.576 93.759-85 103.097-48.424-9.339-85-51.946-85-103.097s36.576-93.759 85-103.097c48.424 9.338 85 51.946 85 103.097z" fill="#fff5f5"/><path d="m20.004 184.5h318.769c97.112 0 164.27 98.187 127.836 188.205-2.465 6.09-5.089 11.306-7.867 15.391-44.224 65.035-118.92 107.679-203.559 107.402-135.321-.441-244.183-109.678-244.183-244.998 0-22.869 3.144-45.001 9.004-66z" fill="#058b1c"/><path d="m454.606 164.5h-80.045-7.246-62.289c-16.808 0-30.383-13.954-29.659-30.747.01-.223.021-.447.033-.67 1.377-24.914 19.335-45.478 43.915-49.769 18.018-3.145 34.767 2.711 46.514 13.808 9.991-17.694 27.861-30.482 48.713-33.392 23.643 20.089 43.419 44.585 58.064 72.22 6.602 12.459-1.906 27.702-15.984 28.493-.666.038-1.339.057-2.016.057z" fill="#a19a13"/><path d="m460.5 135.384c3.948 0 7.874-.016 11.788-.039 18.316 34.331 28.712 73.527 28.712 115.155 0 51.007-15.594 98.369-42.265 137.592-87.58-14.314-154.642-51.269-173.435-97.02-92.689-22.937-154.3-63.527-154.3-109.783 0-71.584 147.522-45.905 329.5-45.905z" fill="#01cffa"/><path d="m472.288 135.345c18.316 34.331 28.712 73.527 28.712 115.155 0 34.103-6.979 66.571-19.571 96.072-61.634-13.963-110.408-39.603-134.981-71.271-10.428-13.439-24.586-23.557-40.833-28.597-76.499-23.734-125.615-60.517-125.615-101.818 0-2.954.275-5.726.77-8.356 58.192-11.938 161.704-1.146 279.73-1.146 3.948 0 7.874-.016 11.788-.039z" fill="#62dafa"/><path d="m410 194.5c0 5.523-4.477 10-10 10h-60c-5.523 0-10-4.477-10-10s4.477-10 10-10h60c5.523 0 10 4.477 10 10zm-60-30c0-5.523-4.477-10-10-10h-60c-5.523 0-10 4.477-10 10s4.477 10 10 10h60c5.523 0 10-4.477 10-10zm110 110h-40c-5.523 0-10 4.477-10 10s4.477 10 10 10h40c5.523 0 10-4.477 10-10s-4.477-10-10-10zm-30-40h20c5.523 0 10-4.477 10-10s-4.477-10-10-10h-20c-5.523 0-10 4.477-10 10s4.477 10 10 10z" fill="#c7eefd"/><path d="m367.381 360.584c-.171.737-.354 1.494-.548 2.266l-36.666 11.65c-.139-.784-.268-1.551-.385-2.299-2.987-18.997-.542-36.021 5.488-43.679 4.168 2.802 8.194 8.264 11.526 15.5 4.697-13.391 11.518-23.551 18.228-27.396 5.468 8.066 6.692 25.223 2.357 43.958z" fill="#058b1c"/><path d="m269.67 284.5h-80.69-9.389-103.726c-24.967 0-45.721-19.964-45.863-44.931-.002-.166-.002-.333-.002-.5 0-7.689 1.014-15.142 2.907-22.235-18.138-1.258-32.801-16.146-32.906-34.577-.001-.128-.001-.256-.001-.385 0-37.267 30.726-67.357 68.227-66.32 23.912.661 44.814 14.293 55.942 34.001 10.525-9.942 25.066-15.678 40.937-14.502 25.665 1.903 46.426 22.183 49.243 47.527 9.118-3.401 19.134-4.958 29.603-4.182 34.447 2.554 62.086 30.654 64.12 65.136.018.302.034.603.048.904 1.013 21.85-16.578 40.064-38.45 40.064z" fill="#058b1c"/><path d="m310 404.5c0-5.523 4.477-10 10-10h40c5.523 0 10 4.477 10 10s-4.477 10-10 10h-40c-5.523 0-10-4.477-10-10zm-10.106 51.461c.132-.899.145-1.835.018-2.794-.666-5.024-5.153-8.667-10.221-8.667h-29.691c-4.605 0-8.482 3.113-9.644 7.349-22.11-4.119-43.176-11.208-62.768-20.836 1.569-1.827 2.491-4.227 2.406-6.843-.175-5.445-4.86-9.67-10.308-9.67h-20.654c-9.596-6.449-18.711-13.558-27.28-21.264-3.416-3.072-1.264-8.736 3.331-8.736h154.575c5.326 0 9.977-4.02 10.321-9.334.377-5.824-4.235-10.666-9.979-10.666h-175.615c-6.341 0-12.318-2.999-16.085-8.1-9.482-12.839 9.827-109.372-17.393-161.896-16.24-31.337-11.24-69.671 8.32-74.866-6.584-2.454-13.65-3.883-21-4.086-37.501-1.037-68.227 29.053-68.227 66.32 0 .129 0 .257.001.386.065 11.422 5.722 21.483 14.332 27.783-2.191 13.161-3.333 26.676-3.333 40.459 0 15.026 1.342 29.731 3.914 44h.033c20.73 114.31 120.764 201 241.052 201 77.719 0 146.976-36.196 191.859-92.641-40.759 32.412-92.076 52.119-147.964 53.102z" fill="#31662b"/><path d="m272 194.5v190h-20v-60h-150v60h-20v-190h20v110h150v-110z" fill="#6caac9"/><path d="m37 214.5v-10c0-5.523 4.477-10 10-10h260c5.523 0 10 4.477 10 10v10c0 5.523-4.477 10-10 10h-260c-5.523 0-10-4.477-10-10zm10 50h260c5.523 0 10-4.477 10-10v-10c0-5.523-4.477-10-10-10h-260c-5.523 0-10 4.477-10 10v10c0 5.523 4.477 10 10 10zm297 10h-334c-5.523 0-10 4.477-10 10v10c0 5.523 4.477 10 10 10h334c5.523 0 10-4.477 10-10v-10c0-5.523-4.477-10-10-10z" fill="#dca050"/><path d="m71 214.5v-10c0-5.523 4.477-10 10-10h226c5.523 0 10 4.477 10 10v10c0 5.523-4.477 10-10 10h-226c-5.523 0-10-4.477-10-10zm273 60h-300c-5.523 0-10 4.477-10 10v10c0 5.523 4.477 10 10 10h300c5.523 0 10-4.477 10-10v-10c0-5.523-4.477-10-10-10zm-263-10h226c5.523 0 10-4.477 10-10v-10c0-5.523-4.477-10-10-10h-226c-5.523 0-10 4.477-10 10v10c0 5.523 4.477 10 10 10z" fill="#f8bb5e"/></svg>